<svg width="24" height="24" viewBox="0 0 24 24" fill="none" xmlns="http://www.w3.org/2000/svg">
<g clip-path="url(#clip0_1_337)">
<path d="M17.625 19.0769C17.625 19.4653 17.3102 19.78 16.9219 19.78C16.5335 19.78 16.2188 19.4653 16.2188 19.0769C16.2188 18.6885 16.5335 18.3738 16.9219 18.3738C17.3102 18.3738 17.625 18.6885 17.625 19.0769Z" fill="#636363"/>
<path d="M14.1094 8.53003H14.9332C16.0278 8.53003 17.057 8.9563 17.831 9.73029C17.9659 9.86542 18.1467 9.93628 18.3283 9.93628C18.5153 9.93628 18.6962 9.85956 18.8253 9.73029C19.2856 9.26996 19.8365 8.93378 20.4375 8.73602V10.6394C20.4375 11.0278 20.7523 11.3425 21.1406 11.3425C21.529 11.3425 21.8438 11.0278 21.8438 10.6394V8.53003H22.5469C22.9352 8.53003 23.25 8.21527 23.25 7.8269V0.701904C23.25 0.313538 22.9352 -0.0012207 22.5469 -0.0012207H21.7231C20.4763 -0.0012207 19.2931 0.410583 18.3281 1.16974C17.3632 0.410583 16.1799 -0.0012207 14.9332 -0.0012207H14.1094C13.721 -0.0012207 13.4062 0.313538 13.4062 0.701904V7.8269C13.4062 8.21527 13.721 8.53003 14.1094 8.53003ZM21.8438 1.40503V7.12378H21.7231C20.7458 7.12378 19.8256 7.37756 19.0312 7.82434V2.41431C19.7776 1.76208 20.7226 1.40503 21.7231 1.40503H21.8438ZM14.8125 1.40503H14.9332C15.9333 1.40503 16.8788 1.76099 17.625 2.41284V7.82416C16.812 7.36694 15.8914 7.12378 14.9332 7.12378H14.8125V1.40503Z" fill="#636363"/>
<path d="M1.45312 23.9989H22.5469C22.9352 23.9989 23.25 23.6841 23.25 23.2957V16.2645C23.25 15.8761 22.9352 15.5614 22.5469 15.5614H16.1481C15.8214 13.9586 14.4009 12.7489 12.7031 12.7489H10.5938V12.0313C11.4701 11.371 12 10.3326 12 9.23323V7.97749C12 6.18635 10.7402 4.63069 9.06958 4.35896C6.91058 4.00777 4.96875 5.65608 4.96875 7.82698V9.23323C4.96875 10.3326 5.49866 11.371 6.375 12.0313V12.7489H4.26562C2.32709 12.7489 0.75 14.3259 0.75 16.2645V23.2957C0.75 23.6841 1.06476 23.9989 1.45312 23.9989ZM21.8438 22.5926H12V16.9676H21.8438V22.5926ZM6.375 7.82698C6.375 6.5674 7.49323 5.52736 8.84381 5.74708C9.84137 5.90932 10.5938 6.86824 10.5938 7.97749V9.23323C10.5938 9.98433 10.1986 10.6627 9.53687 11.048C9.32062 11.1738 9.1875 11.4052 9.1875 11.6557V13.1607L8.48438 13.8638L7.78125 13.1607V11.6557C7.78125 11.4054 7.64813 11.1738 7.43188 11.048C6.77014 10.6627 6.375 9.98433 6.375 9.23323V7.82698ZM2.15625 16.2645C2.15625 15.1014 3.10254 14.1551 4.26562 14.1551H6.7868L7.98724 15.3554C8.12439 15.4927 8.30438 15.5614 8.48438 15.5614C8.66437 15.5614 8.84436 15.4927 8.98151 15.3554L10.1819 14.1551H12.7031C13.6198 14.1551 14.4012 14.7429 14.6917 15.5614H11.2969C10.9085 15.5614 10.5938 15.8761 10.5938 16.2645V20.4851C10.0058 20.0427 9.27521 19.7801 8.48438 19.7801H4.96875V16.2645C4.96875 15.8761 4.65399 15.5614 4.26562 15.5614C3.87726 15.5614 3.5625 15.8761 3.5625 16.2645V20.4832C3.5625 20.8716 3.87726 21.1864 4.26562 21.1864H8.48438C9.40118 21.1864 10.183 21.7741 10.4733 22.5926H2.15625V16.2645Z" fill="#636363"/>
</g>
<defs>
<clipPath id="clip0_1_337">
<rect width="24" height="24" fill="white" transform="translate(0 -0.0012207)"/>
</clipPath>
</defs>
</svg>
